<?xml version="1.0" standalone="no"?>
<!DOCTYPE svg PUBLIC "-//W3C//DTD SVG 20010904//EN"
 "http://www.w3.org/TR/2001/REC-SVG-20010904/DTD/svg10.dtd">
<svg version="1.0" xmlns="http://www.w3.org/2000/svg"
 width="300.000000pt" height="300.000000pt" viewBox="0 0 300.000000 300.000000"
 preserveAspectRatio="xMidYMid meet">
<metadata>
Created by potrace 1.14, written by Peter Selinger 2001-2017
</metadata>
<g transform="translate(0.000000,300.000000) scale(0.100000,-0.100000)"
fill="#000000" stroke="none">
<path d="M0 1500 l0 -1500 1500 0 1500 0 0 1500 0 1500 -1500 0 -1500 0 0
-1500z m1455 360 c26 -29 24 -79 -4 -102 -70 -56 -164 39 -101 102 26 26 81
26 105 0z m-253 -227 l3 -238 38 -3 37 -3 0 -50 0 -49 -57 0 c-72 0 -103 15
-125 60 -16 30 -18 67 -18 278 l0 242 60 0 60 0 2 -237z m948 137 l0 -100 33
20 c44 27 149 28 194 0 62 -37 68 -57 71 -237 l4 -163 -61 0 -61 0 0 144 c0
169 -3 176 -80 176 -42 0 -52 -4 -74 -31 -25 -29 -26 -35 -26 -160 l0 -129
-60 0 -60 0 0 290 0 290 60 0 60 0 0 -100z m-1302 -80 c26 -16 32 -17 32 -5 0
11 13 15 55 15 l55 0 0 -223 c0 -211 -1 -225 -22 -267 -37 -72 -63 -85 -181
-88 -115 -3 -150 10 -187 70 -34 56 -28 68 35 68 44 0 56 -4 65 -20 9 -17 21
-20 72 -20 73 0 98 17 98 67 l0 34 -31 -17 c-46 -23 -168 -16 -205 12 -61 45
-69 66 -69 183 0 101 2 110 27 143 37 49 81 68 158 68 47 0 74 -5 98 -20z
m1026 6 c40 -17 81 -69 89 -113 l7 -33 -60 0 c-45 0 -60 3 -60 14 0 30 -30 46
-86 46 -79 0 -94 -18 -94 -115 0 -96 15 -115 93 -115 61 0 72 6 86 43 10 25
15 27 67 27 l57 0 -6 -37 c-7 -42 -30 -77 -71 -107 -22 -17 -45 -22 -119 -24
-80 -3 -98 0 -137 20 -61 31 -82 72 -88 167 -7 122 23 196 92 226 42 18 187
19 230 1z m-414 -201 l0 -205 -60 0 -60 0 0 205 0 205 60 0 60 0 0 -205z"/>
<path d="M700 1590 c-28 -28 -29 -158 -2 -183 19 -17 94 -23 127 -11 26 10 45
59 45 119 0 75 -20 95 -95 95 -42 0 -60 -5 -75 -20z"/>
</g>
</svg>
